<?xml version="1.0" standalone="no"?>
<!DOCTYPE svg PUBLIC "-//W3C//DTD SVG 1.1//EN" "http://www.w3.org/Graphics/SVG/1.1/DTD/svg11.dtd" >
<svg xmlns="http://www.w3.org/2000/svg" xmlns:xlink="http://www.w3.org/1999/xlink" version="1.1">
<metadata>
Created by FontForge 20170731 at Thu Oct 19 19:31:12 2023
 By Aleksey,,,
2015 Iconian Fonts - www.iconian.com
</metadata>
<defs>
<font id="911Porscha" horiz-adv-x="2027" >
  <font-face 
    font-family="911 Porscha"
    font-weight="400"
    font-stretch="normal"
    units-per-em="2048"
    panose-1="0 0 0 0 0 0 0 0 0 0"
    ascent="1638"
    descent="-410"
    x-height="993"
    cap-height="993"
    bbox="-289 -342 3531 1329"
    underline-thickness="102"
    underline-position="-358"
    unicode-range="U+0020-2122"
  />
<missing-glyph horiz-adv-x="1024" 
 />
    <glyph glyph-name=".notdef" horiz-adv-x="1024" 
 />
    <glyph glyph-name=".null" horiz-adv-x="0" 
 />
    <glyph glyph-name="nonmarkingreturn" horiz-adv-x="1024" 
 />
    <glyph glyph-name="space" unicode=" " horiz-adv-x="1165" 
 />
    <glyph glyph-name="space" unicode="&#xa0;" horiz-adv-x="1165" 
 />
    <glyph glyph-name="FL0025h" unicode="!" horiz-adv-x="423" 
d="M322 313h-220v680h220v-680zM322 217v-217h-220v217h220z" />
    <glyph glyph-name="FL0022h" unicode="&#x22;" horiz-adv-x="745" 
d="M643 993v-385h-219v385h219zM322 993v-385h-220v385h220z" />
    <glyph glyph-name="FL0023h" unicode="#" horiz-adv-x="1996" 
d="M102 178v217h377v203h-377v217h377v178h217v-178h613v178h217v-178h368v-217h-368v-203h368v-217h-368v-178h-217v178h-613v-178h-217v178h-377zM696 598v-203h613v203h-613z" />
    <glyph glyph-name="FL0024h" unicode="$" 
d="M1176 -193v193h-324v-193h-219v193h-531v217h531v172h-326q-83 0 -143 56q-62 57 -62 161v170q0 104 62 161q60 56 143 56h326v193h219v-193h324v193h219v-193h530v-217h-530v-170h325q84 0 144 -59q61 -60 61 -160v-170q0 -104 -61 -161q-60 -56 -144 -56h-325v-193
h-219zM1630 389h-235v-172h233q29 0 54 19q24 18 24 59v18q0 44 -19 60t-57 16zM322 684q0 -42 23 -59q25 -19 54 -19h234v170h-236q-37 0 -56 -15t-19 -59v-18zM852 389v-172h324v172h-324zM852 776v-170h324v170h-324z" />
    <glyph glyph-name="FL002Ah" unicode="%" horiz-adv-x="2408" 
d="M1737 993h-262l-818 -993h267zM2204 496h-705q-40 0 -73 -28q-31 -27 -31 -81v-278q0 -54 31 -81q33 -28 73 -28h705q40 0 71 28t31 81v278q0 51 -31 80t-71 29zM2107 160h-518q-35 0 -35 45v86q0 45 37 45h516q39 0 39 -45v-86q0 -45 -39 -45zM911 993h-704
q-42 0 -73 -27q-32 -27 -32 -81v-279q0 -54 32 -81t73 -27h704q42 0 72 27q31 28 31 81v279q0 51 -31 80q-29 28 -72 28zM815 657h-516q-35 0 -35 45v86q0 46 37 46h514q39 0 39 -46v-86q0 -45 -39 -45z" />
    <glyph glyph-name="FL0026h" unicode="&#x26;" horiz-adv-x="2111" 
d="M399 606h1610v-217h-168v-172q0 -104 -61 -161q-60 -56 -144 -56h-1329q-83 0 -143 56q-62 57 -62 161v152q0 27 16 67q15 38 42 60q-26 31 -41 62q-17 36 -17 67v151q0 104 62 161q60 56 143 56h1272v-217h-1182q-37 0 -56 -15t-19 -59v-18q0 -42 23 -59q25 -19 54 -19z
M399 217h1145q29 0 54 19q24 18 24 59v94h-1235q-33 -5 -49 -19q-16 -15 -16 -57v-18q0 -42 23 -59q25 -19 54 -19z" />
    <glyph glyph-name="FL0027h" unicode="'" horiz-adv-x="423" 
d="M322 993v-385h-220v385h220z" />
    <glyph glyph-name="FL0028h" unicode="(" horiz-adv-x="831" 
d="M393 68h336v-218h-420q-41 0 -78 15q-36 14 -65 42q-28 27 -46 67t-18 94v856q0 52 18 92q19 42 46 68q29 28 65 42q37 15 78 15h420v-217h-332q-40 0 -58 -26q-17 -24 -17 -67v-671q0 -43 20 -67q21 -25 51 -25z" />
    <glyph glyph-name="FL0029h" unicode=")" horiz-adv-x="831" 
d="M438 68h-336v-218h420q40 0 77 15q39 16 67 42q28 27 46 67q17 38 17 94v856q0 54 -17 92q-19 42 -46 68q-28 26 -67 42q-38 15 -77 15h-420v-217h332q41 0 59 -26q17 -24 17 -67v-671q0 -42 -21 -67t-51 -25z" />
    <glyph glyph-name="asterisk" unicode="*" horiz-adv-x="501" 
d="M383 860l-94 -63l-37 57l-33 -57l-106 63l69 55l-80 17l33 96l72 -29l-12 72h108l-10 -72l80 31l26 -98l-88 -17z" />
    <glyph glyph-name="FL002Bh" unicode="+" horiz-adv-x="1650" 
d="M717 993h217v-387h614v-217h-614v-389h-217v389h-615v217h615v387z" />
    <glyph glyph-name="FL002Ch" unicode="," horiz-adv-x="423" 
d="M322 217v-385h-220v385h220z" />
    <glyph glyph-name="FL002Dh" unicode="-" horiz-adv-x="1263" 
d="M102 389v217h1059v-217h-1059z" />
    <glyph glyph-name="period" unicode="." horiz-adv-x="423" 
d="M322 217v-217h-220v217h220z" />
    <glyph glyph-name="FL002Fh" unicode="/" horiz-adv-x="1185" 
d="M860 993h273l-803 -993h-277z" />
    <glyph glyph-name="FL0030h" unicode="0" 
d="M393 217h1235q30 0 54 26q24 25 24 66v375q0 42 -19 67t-57 25h-1233q-40 0 -58 -25q-17 -24 -17 -67v-375q0 -42 20 -66q21 -26 51 -26zM309 993h1409q40 0 77 -15t67 -43q26 -25 46 -69q17 -38 17 -90v-559q0 -55 -17 -93q-19 -42 -46 -68q-28 -26 -67 -42
q-35 -14 -77 -14h-1409q-43 0 -78 14q-36 14 -65 42q-27 26 -46 68q-18 40 -18 93v559q0 52 18 92q20 44 46 69q29 28 65 42q35 14 78 14zM1122 606v-217h-219v217h219z" />
    <glyph glyph-name="FL0031h" unicode="1" 
d="M1925 217v-217h-1823v217h801v559h-801v217h1020v-776h803z" />
    <glyph glyph-name="two" unicode="2" 
d="M1925 217h-1603v96q0 44 19 60t56 16h1323q84 0 144 56q61 57 61 161v170q0 104 -61 161q-60 56 -144 56h-1618v-217h1528q38 0 57 -15t19 -59v-18q0 -41 -24 -59q-25 -19 -54 -19h-1321q-83 0 -143 -59q-62 -60 -62 -160v-387h1823v217z" />
    <glyph glyph-name="three" unicode="3" 
d="M1630 776h-1528v217h1616q40 0 77 -15t67 -43q26 -25 46 -69q17 -38 17 -90v-141q0 -47 -24 -84q-22 -34 -50 -55q28 -18 50 -45q24 -30 24 -82v-152q0 -52 -17 -90q-20 -44 -46 -69q-30 -28 -67 -43t-77 -15h-1616v217h1528q38 0 57 15t19 59v20q0 42 -24 60t-54 18
h-1526v217h1526q29 0 54 19q24 18 24 59v18q0 44 -19 59t-57 15z" />
    <glyph glyph-name="four" unicode="4" 
d="M322 993v-387h1384v387h219v-993h-219v389h-1604v604h220z" />
    <glyph glyph-name="five" unicode="5" 
d="M102 217h1526q29 0 54 19q24 18 24 59v18q0 44 -19 60t-57 16h-1528v604h1823v-217h-1603v-170h1398q84 0 144 -59q61 -60 61 -160v-170q0 -104 -61 -161q-60 -56 -144 -56h-1618v217z" />
    <glyph glyph-name="six" unicode="6" 
d="M309 993h1616v-217h-1528q-40 0 -58 -25q-17 -24 -17 -67v-78h1398q84 0 144 -59q61 -60 61 -160v-170q0 -55 -17 -93q-19 -42 -46 -68q-28 -26 -67 -42q-35 -14 -77 -14h-1409q-43 0 -78 14q-36 14 -65 42q-27 26 -46 68q-18 40 -18 93v559q0 52 18 92q20 44 46 69
q29 28 65 42q35 14 78 14zM1630 389h-1308v-80q0 -42 20 -66q21 -26 51 -26h1235q30 0 54 26q24 25 24 66v17q-4 33 -23 49q-17 14 -53 14z" />
    <glyph glyph-name="FL0037h" unicode="7" 
d="M821 0h-403l1044 776h-1360v217h1823v-180z" />
    <glyph glyph-name="FL0038h" unicode="8" 
d="M1720 993q83 0 144 -58t61 -159v-151q0 -34 -13 -70t-44 -59q30 -24 44 -61q13 -35 13 -66v-152q0 -104 -61 -161q-60 -56 -144 -56h-1413q-83 0 -143 56q-62 57 -62 161v152q0 27 16 67q15 38 42 60q-26 31 -41 62q-17 36 -17 67v151q0 104 62 161q60 56 143 56h1413z
M399 217h1229q29 0 54 19q24 18 24 59v18q0 44 -19 60t-57 16h-1243q-33 -5 -49 -19q-16 -15 -16 -57v-18q0 -42 23 -59q25 -19 54 -19zM399 606h1229q29 0 54 19q24 18 24 59v18q0 44 -19 59t-57 15h-1233q-37 0 -56 -15t-19 -59v-18q0 -42 23 -59q25 -19 54 -19z" />
    <glyph glyph-name="nine" unicode="9" 
d="M1718 0h-1616v217h1528q41 0 59 26q17 24 17 66v78h-1399q-83 0 -143 59q-62 60 -62 160v170q0 52 18 92q20 44 46 69q29 28 65 42q35 14 78 14h1409q42 0 77 -14q39 -16 67 -42q26 -25 46 -69q17 -38 17 -92v-559q0 -55 -17 -93q-19 -42 -46 -68q-28 -26 -67 -42
q-35 -14 -77 -14zM397 604h1309v80q0 43 -20 67q-21 25 -52 25h-1235q-30 0 -54 -25q-23 -24 -23 -67v-16q5 -36 22 -50t53 -14z" />
    <glyph glyph-name="FL003Ah" unicode=":" horiz-adv-x="423" 
d="M322 217v-217h-220v217h220zM322 776v-217h-220v217h220z" />
    <glyph glyph-name="FL003Bh" unicode=";" horiz-adv-x="423" 
d="M322 776v-217h-220v217h220zM322 217v-385h-220v385h220z" />
    <glyph glyph-name="FL003Ch" unicode="&#x3c;" horiz-adv-x="595" 
d="M522 993l-211 -495l211 -498h-223l-225 498l225 495h223z" />
    <glyph glyph-name="FL003Dh" unicode="=" horiz-adv-x="1466" 
d="M102 410h1262v-217h-1262v217zM102 805h1262v-217h-1262v217z" />
    <glyph glyph-name="FL003Eh" unicode="&#x3e;" horiz-adv-x="595" 
d="M74 993l211 -495l-211 -498h223l225 498l-225 495h-223z" />
    <glyph glyph-name="FL003Fh" unicode="?" 
d="M571 313h-219v74q0 100 62 160q60 59 143 59h1071q29 0 54 19q24 18 24 59v18q0 44 -19 59t-57 15h-1528v217h1618q84 0 144 -56q61 -57 61 -161v-170q0 -104 -61 -161q-60 -56 -144 -56h-1073q-37 0 -56 -16q-20 -17 -20 -60zM571 217v-217h-219v217h219z" />
    <glyph glyph-name="FL0040h" unicode="@" horiz-adv-x="2125" 
d="M1733 420q30 0 51 25q20 24 20 67v299q0 43 -17 67q-18 25 -58 25h-1332q-40 0 -58 -25q-17 -24 -17 -67v-631q0 -42 20 -66q21 -26 51 -26h1630v-217h-1714q-43 0 -78 14q-36 14 -65 42q-27 26 -46 68q-18 41 -18 93v815q0 51 18 92q20 44 46 69q29 28 65 42
q35 14 78 14h1508q41 0 76 -14q39 -16 67 -42q26 -25 46 -69q17 -38 17 -92v-446q0 -57 -17 -95q-19 -42 -46 -68q-30 -28 -67 -43t-76 -15h-1213q-40 0 -75 27q-33 26 -33 81v305q0 55 33 81q36 28 75 28h922q40 0 71 -29t31 -80v-229h105zM1411 420q39 0 39 45v63
q0 45 -39 45h-698q-37 0 -37 -45v-63q0 -45 35 -45h700z" />
    <glyph glyph-name="A" unicode="A" horiz-adv-x="1929" 
d="M324 0h-271l803 993h217l803 -993h-270l-197 240h-889zM965 780l-275 -329h549z" />
    <glyph glyph-name="B" unicode="B" 
d="M1718 993q40 0 77 -15t67 -43q26 -25 46 -69q17 -38 17 -90v-141q0 -47 -24 -84q-22 -34 -50 -55q28 -18 50 -45q24 -30 24 -82v-152q0 -52 -17 -90q-20 -44 -46 -69q-30 -28 -67 -43t-77 -15h-1616v993h1616zM322 389v-172h1308q39 0 57 11q19 12 19 55v24q0 40 -25 62
q-23 20 -55 20h-1304zM322 776v-170h1306q30 0 54 15t24 55v22q0 42 -22 61q-20 17 -58 17h-1304z" />
    <glyph glyph-name="C" unicode="C" 
d="M309 993h1409q40 0 77 -15t67 -43q26 -25 46 -69q17 -38 17 -90v-149h-219v57q0 42 -19 67t-57 25h-1233q-40 0 -58 -25q-17 -24 -17 -67v-375q0 -42 20 -66q21 -26 51 -26h1235q30 0 54 26q24 25 24 66v60h219v-152q0 -55 -17 -93q-19 -42 -46 -68q-28 -26 -67 -42
q-35 -14 -77 -14h-1409q-43 0 -78 14q-36 14 -65 42q-27 26 -46 68q-18 40 -18 93v559q0 52 18 92q20 44 46 69q29 28 65 42q35 14 78 14z" />
    <glyph glyph-name="D" unicode="D" 
d="M1718 993h-1616v-993h1616q42 0 77 14q39 16 67 42q27 26 46 68q17 38 17 93v559q0 52 -17 90q-20 44 -46 69q-30 28 -67 43t-77 15zM1628 217h-1306v559h1308q38 0 57 -25t19 -67v-375q0 -41 -24 -66q-24 -26 -54 -26z" />
    <glyph glyph-name="E" unicode="E" 
d="M322 217h1603v-217h-1823v993h1823v-217h-1603v-170h1603v-217h-1603v-172z" />
    <glyph glyph-name="F" unicode="F" 
d="M322 0h-220v993h1823v-217h-1603v-170h1603v-217h-1603v-389z" />
    <glyph glyph-name="G" unicode="G" 
d="M309 993h1616v-217h-1528q-40 0 -58 -25q-17 -24 -17 -67v-375q0 -42 20 -66q21 -26 51 -26h1235q30 0 54 26q24 25 24 66v17q-4 33 -23 49q-17 14 -53 14h-846v217h936q84 0 144 -59q61 -60 61 -160v-170q0 -55 -17 -93q-19 -42 -46 -68q-28 -26 -67 -42
q-35 -14 -77 -14h-1409q-43 0 -78 14q-36 14 -65 42q-27 26 -46 68q-18 40 -18 93v559q0 52 18 92q20 44 46 69q29 28 65 42q35 14 78 14z" />
    <glyph glyph-name="H" unicode="H" 
d="M322 993v-387h1384v387h219v-993h-219v389h-1384v-389h-220v993h220z" />
    <glyph glyph-name="I" unicode="I" 
d="M1925 217v-217h-1823v217h801v559h-801v217h1823v-217h-803v-559h803z" />
    <glyph glyph-name="J" unicode="J" 
d="M1628 217q30 0 54 26q24 25 24 66v684h219v-776q0 -55 -17 -93q-19 -42 -46 -68q-28 -26 -67 -42q-35 -14 -77 -14h-1409q-43 0 -78 14q-36 14 -65 42q-27 26 -46 68q-18 40 -18 93v318h220v-226q0 -42 20 -66q21 -26 51 -26h1235z" />
    <glyph glyph-name="K" unicode="K" horiz-adv-x="2009" 
d="M322 0h-220v993h220v-387h1216l166 387h223l-198 -495l198 -498h-223l-166 389h-1216v-389z" />
    <glyph glyph-name="L" unicode="L" 
d="M399 217q-30 0 -54 26q-23 24 -23 66v684h-220v-776q0 -53 18 -93q19 -42 46 -68q29 -28 65 -42q35 -14 78 -14h1616v217h-1526z" />
    <glyph glyph-name="M" unicode="M" horiz-adv-x="2025" 
d="M1933 993v-993h-219v752l-702 -650l-701 650v-752h-219v993h250l670 -626l671 626h250z" />
    <glyph glyph-name="N" unicode="N" 
d="M102 993h222l1382 -753v753h219v-993h-221l-1382 754v-754h-220v993z" />
    <glyph glyph-name="O" unicode="O" 
d="M1718 993h-1409q-43 0 -78 -14q-36 -14 -65 -42q-26 -25 -46 -69q-18 -40 -18 -92v-559q0 -53 18 -93q19 -42 46 -68q29 -28 65 -42q35 -14 78 -14h1409q42 0 77 14q39 16 67 42q27 26 46 68q17 38 17 93v559q0 52 -17 90q-20 44 -46 69q-30 28 -67 43t-77 15zM1628 217
h-1235q-30 0 -51 26q-20 24 -20 66v375q0 43 17 67q18 25 58 25h1233q38 0 57 -25t19 -67v-375q0 -41 -24 -66q-24 -26 -54 -26z" />
    <glyph glyph-name="P" unicode="P" 
d="M1718 993q40 0 77 -15t67 -43q26 -25 46 -69q17 -38 17 -90v-170q0 -55 -17 -93q-19 -42 -46 -68q-28 -26 -67 -42q-35 -14 -77 -14h-1396v-389h-220v993h1616zM322 776v-170h1306q29 0 53 15q25 16 25 55v22q0 43 -23 61q-21 17 -57 17h-1304z" />
    <glyph glyph-name="Q" unicode="Q" 
d="M1122 -184h-219v184h-594q-43 0 -78 14q-36 14 -65 42q-27 26 -46 68q-18 40 -18 93v559q0 52 18 92q20 44 46 69q29 28 65 42q35 14 78 14h1409q40 0 77 -15t67 -43q26 -25 46 -69q17 -38 17 -90v-559q0 -55 -17 -93q-19 -42 -46 -68q-28 -26 -67 -42q-35 -14 -77 -14
h-596v-184zM393 217h510v246h219v-246h506q30 0 54 26q24 25 24 66v375q0 42 -19 67t-57 25h-1233q-40 0 -58 -25q-17 -24 -17 -67v-375q0 -42 20 -66q21 -26 51 -26z" />
    <glyph glyph-name="R" unicode="R" 
d="M1718 993q40 0 77 -15t67 -43q26 -25 46 -69q17 -38 17 -90v-170q0 -88 -44 -141q-45 -54 -109 -70l155 -395h-223l-174 389h-1208v-389h-220v993h1616zM322 776v-170h1306q29 0 54 14q24 14 24 54v22q0 43 -22 62q-21 18 -58 18h-1304z" />
    <glyph glyph-name="S" unicode="S" 
d="M102 217h1526q29 0 54 19q24 18 24 59v18q0 44 -19 60t-57 16h-1323q-83 0 -143 56q-62 57 -62 161v170q0 104 62 161q60 56 143 56h1618v-217h-1528q-37 0 -56 -15t-19 -59v-18q0 -42 23 -59q25 -19 54 -19h1321q84 0 144 -59q61 -60 61 -160v-170q0 -104 -61 -161
q-60 -56 -144 -56h-1618v217z" />
    <glyph glyph-name="T" unicode="T" 
d="M102 776v217h1823v-217h-803v-776h-219v776h-801z" />
    <glyph glyph-name="U" unicode="U" 
d="M393 217h1313v776h219v-993h-1616q-43 0 -78 14q-36 14 -65 42q-27 26 -46 68q-18 40 -18 93v776h220v-684q0 -42 20 -66q21 -26 51 -26z" />
    <glyph glyph-name="V" unicode="V" horiz-adv-x="1929" 
d="M1604 993h272l-803 -993h-217l-803 993h273l639 -778z" />
    <glyph glyph-name="W" unicode="W" horiz-adv-x="2361" 
d="M2060 993h260l-563 -993h-287l-260 457l-258 -457h-286l-564 993h260l447 -772l270 475l-170 297h260l445 -772z" />
    <glyph glyph-name="X" unicode="X" horiz-adv-x="1990" 
d="M1909 993l-197 -495l197 -498h-223l-166 389h-1049l-166 -389h-223l194 498l-194 495h223l164 -387h1051l166 387h223z" />
    <glyph glyph-name="Y" unicode="Y" 
d="M102 217h1526q29 0 54 19q24 18 24 59v96h-1397q-41 0 -78 15q-38 15 -65 41t-46 68q-18 41 -18 93v385h220v-293q0 -42 20 -66q21 -26 51 -26h1313v385h219v-776q0 -104 -61 -161q-60 -56 -144 -56h-1618v217z" />
    <glyph glyph-name="Z" unicode="Z" 
d="M1925 217h-1603v96q0 44 19 60t56 16h1323q84 0 144 56q61 57 61 161v387h-1823v-217h1604v-92q0 -41 -24 -59q-25 -19 -54 -19h-1321q-83 0 -143 -59q-62 -60 -62 -160v-387h1823v217z" />
    <glyph glyph-name="FL005Bh" unicode="[" horiz-adv-x="841" 
d="M322 68h417v-218h-637v1291h637v-217h-417v-856z" />
    <glyph glyph-name="FL005Ch" unicode="\" horiz-adv-x="1185" 
d="M326 993h-273l803 -993h277z" />
    <glyph glyph-name="FL005Dh" unicode="]" horiz-adv-x="841" 
d="M518 68h-418v-218h637v1291h-637v-217h418v-856z" />
    <glyph glyph-name="FL005Eh" unicode="^" horiz-adv-x="1929" 
d="M326 0h-273l803 993h217l803 -993h-272l-639 778z" />
    <glyph glyph-name="FL005Fh" unicode="_" horiz-adv-x="1650" 
d="M102 141h1446v-217h-1446v217z" />
    <glyph glyph-name="FL0060h" unicode="`" horiz-adv-x="518" 
d="M283 1071l182 -217h-207l-205 217h230z" />
    <glyph glyph-name="a" unicode="a" 
d="M1925 0h-219v389h-1384v-389h-220v776q0 52 18 92q20 44 46 69q29 28 65 42q35 14 78 14h1409q40 0 77 -15t67 -43q26 -25 46 -69q17 -38 17 -90v-776zM322 684v-78h1384v78q0 42 -19 67t-57 25h-1233q-40 0 -58 -25q-17 -24 -17 -67z" />
    <glyph glyph-name="b" unicode="b" 
d="M1718 993q40 0 77 -15t67 -43q26 -25 46 -69q17 -38 17 -90v-141q0 -47 -24 -84q-22 -34 -50 -55q28 -18 50 -45q24 -30 24 -82v-152q0 -52 -17 -90q-20 -44 -46 -69q-30 -28 -67 -43t-77 -15h-1616v993h1616zM322 389v-172h1308q39 0 57 11q19 12 19 55v24q0 41 -26 62
q-24 20 -56 20h-1302zM322 776v-170h1306q30 0 54 15t24 55v22q0 42 -22 61q-20 17 -58 17h-1304z" />
    <glyph glyph-name="c" unicode="c" 
d="M393 217h1532v-217h-1616q-43 0 -78 14q-36 14 -65 42q-27 26 -46 68q-18 40 -18 93v559q0 52 18 92q20 44 46 69q29 28 65 42q35 14 78 14h1616v-217h-1528q-40 0 -58 -25q-17 -24 -17 -67v-375q0 -42 20 -66q21 -26 51 -26z" />
    <glyph glyph-name="d" unicode="d" 
d="M1718 993h-1616v-993h1616q42 0 77 14q39 16 67 42q27 26 46 68q17 38 17 93v559q0 52 -17 90q-20 44 -46 69q-30 28 -67 43t-77 15zM1628 217h-1306v559h1308q38 0 57 -25t19 -67v-375q0 -41 -24 -66q-24 -26 -54 -26z" />
    <glyph glyph-name="e" unicode="e" 
d="M322 217h1603v-217h-1823v993h1823v-217h-1603v-170h1603v-217h-1603v-172z" />
    <glyph glyph-name="f" unicode="f" 
d="M322 0h-220v993h1823v-217h-1603v-170h1603v-217h-1603v-389z" />
    <glyph glyph-name="g" unicode="g" 
d="M309 993h1616v-217h-1528q-40 0 -58 -25q-17 -24 -17 -67v-375q0 -42 20 -66q21 -26 51 -26h1235q30 0 54 26q24 25 24 66v226h219v-318q0 -55 -17 -93q-19 -42 -46 -68q-28 -26 -67 -42q-35 -14 -77 -14h-1409q-43 0 -78 14q-36 14 -65 42q-27 26 -46 68q-18 40 -18 93
v559q0 52 18 92q20 44 46 69q29 28 65 42q35 14 78 14z" />
    <glyph glyph-name="h" unicode="h" 
d="M322 993v-387h1384v387h219v-993h-219v389h-1384v-389h-220v993h220z" />
    <glyph glyph-name="i" unicode="i" horiz-adv-x="425" 
d="M324 0h-222v993h222v-993z" />
    <glyph glyph-name="j" unicode="j" 
d="M1628 217q30 0 54 26q24 25 24 66v684h219v-776q0 -55 -17 -93q-19 -42 -46 -68q-28 -26 -67 -42q-35 -14 -77 -14h-1616v217h1526z" />
    <glyph glyph-name="k" unicode="k" horiz-adv-x="2009" 
d="M322 0h-220v993h220v-387h1216l166 387h223l-198 -495l198 -498h-223l-166 389h-1216v-389z" />
    <glyph glyph-name="l" unicode="l" 
d="M322 217h1603v-217h-1823v993h220v-776z" />
    <glyph glyph-name="m" unicode="m" horiz-adv-x="2240" 
d="M1229 0h-219v776h-613q-40 0 -58 -25q-17 -24 -17 -67v-684h-220v772q0 51 18 93q19 44 46 70q31 29 65 43q37 15 78 15h1622q39 0 77 -15q39 -16 67 -45q27 -29 46 -71q17 -38 17 -90v-772h-219v684q0 42 -19 67t-57 25h-614v-776z" />
    <glyph glyph-name="n" unicode="n" 
d="M1628 776q30 0 54 -25t24 -67v-684h219v776q0 54 -17 92q-20 44 -46 69q-28 26 -67 42q-35 14 -77 14h-1616v-993h220v776h1306z" />
    <glyph glyph-name="o" unicode="o" 
d="M1718 993h-1409q-43 0 -78 -14q-36 -14 -65 -42q-26 -25 -46 -69q-18 -40 -18 -92v-559q0 -53 18 -93q19 -42 46 -68q29 -28 65 -42q35 -14 78 -14h1409q42 0 77 14q39 16 67 42q27 26 46 68q17 38 17 93v559q0 52 -17 90q-20 44 -46 69q-30 28 -67 43t-77 15zM1628 217
h-1235q-30 0 -51 26q-20 24 -20 66v375q0 43 17 67q18 25 58 25h1233q38 0 57 -25t19 -67v-375q0 -41 -24 -66q-24 -26 -54 -26z" />
    <glyph glyph-name="p" unicode="p" 
d="M1718 993q40 0 77 -15t67 -43q26 -25 46 -69q17 -38 17 -90v-170q0 -55 -17 -93q-19 -42 -46 -68q-28 -26 -67 -42q-35 -14 -77 -14h-1396v-389h-220v993h1616zM322 776v-170h1306q28 0 53 14t25 54v24q0 43 -23 61q-21 17 -57 17h-1304z" />
    <glyph glyph-name="q" unicode="q" 
d="M309 993h1409q40 0 77 -15t67 -43q26 -25 46 -69q17 -38 17 -90v-559q0 -55 -17 -93q-19 -42 -46 -68q-28 -26 -67 -42q-35 -14 -77 -14h-385l76 -184h-223l-78 184h-799q-43 0 -78 14q-36 14 -65 42q-27 26 -46 68q-18 40 -18 93v559q0 52 18 92q20 44 46 69
q29 28 65 42q35 14 78 14zM918 463h225l100 -246h385q30 0 54 26q24 25 24 66v375q0 42 -19 67t-57 25h-1233q-40 0 -58 -25q-17 -24 -17 -67v-375q0 -42 20 -66q21 -26 51 -26h625z" />
    <glyph glyph-name="r" unicode="r" 
d="M1718 993q40 0 77 -15t67 -43q26 -25 46 -69q17 -38 17 -90v-170q0 -88 -44 -141q-45 -54 -109 -70l155 -395h-223l-174 389h-1208v-389h-220v993h1616zM322 776v-170h1306q29 0 54 14q24 14 24 54v22q0 43 -22 62q-21 18 -58 18h-1304z" />
    <glyph glyph-name="s" unicode="s" 
d="M102 217h1526q29 0 54 19q24 18 24 59v18q0 44 -19 60t-57 16h-1323q-83 0 -143 56q-62 57 -62 161v170q0 104 62 161q60 56 143 56h1618v-217h-1528q-37 0 -56 -15t-19 -59v-18q0 -42 23 -59q25 -19 54 -19h1321q84 0 144 -59q61 -60 61 -160v-170q0 -104 -61 -161
q-60 -56 -144 -56h-1618v217z" />
    <glyph glyph-name="t" unicode="t" 
d="M102 776v217h1823v-217h-803v-776h-219v776h-801z" />
    <glyph glyph-name="u" unicode="u" 
d="M1628 217q30 0 54 26q24 25 24 66v684h219v-776q0 -55 -17 -93q-19 -42 -46 -68q-28 -26 -67 -42q-35 -14 -77 -14h-1409q-43 0 -78 14q-36 14 -65 42q-27 26 -46 68q-18 40 -18 93v776h220v-684q0 -42 20 -66q21 -26 51 -26h1235z" />
    <glyph glyph-name="v" unicode="v" horiz-adv-x="1929" 
d="M1604 993h272l-803 -993h-217l-803 993h273l639 -778z" />
    <glyph glyph-name="w" unicode="w" horiz-adv-x="2240" 
d="M1229 993h-219v-776h-613q-40 0 -58 26q-17 24 -17 66v684h-220v-772q0 -53 18 -94q20 -44 46 -69q31 -29 65 -43q37 -15 78 -15h1622q39 0 77 15q39 16 67 45q27 29 46 71q17 38 17 90v772h-219v-684q0 -41 -19 -66q-20 -26 -57 -26h-614v776z" />
    <glyph glyph-name="x" unicode="x" horiz-adv-x="1990" 
d="M1909 993l-197 -495l197 -498h-223l-166 389h-1049l-166 -389h-223l194 498l-194 495h223l164 -387h1051l166 387h223z" />
    <glyph glyph-name="y" unicode="y" 
d="M1122 0h-219v391h-594q-41 0 -78 15q-38 15 -65 41t-46 68q-18 41 -18 93v385h220v-293q0 -42 20 -66q21 -26 51 -26h1235q30 0 54 26t24 66v293h219v-385q0 -55 -17 -93q-19 -42 -46 -68q-26 -25 -67 -41q-37 -15 -77 -15h-596v-391z" />
    <glyph glyph-name="z" unicode="z" 
d="M1925 217v-217h-1823v190l1278 586h-1278v217h1823v-190l-1278 -586h1278z" />
    <glyph glyph-name="FL00ADh" unicode="{" 
d="M1628 776q30 0 54 -25t24 -67v-684h219v776q0 54 -17 92q-20 44 -46 69q-28 26 -67 42q-35 14 -77 14h-1409q-43 0 -78 -14q-36 -14 -65 -42q-26 -25 -46 -69q-18 -40 -18 -92v-776h220v684q0 43 20 67q21 25 51 25h1235z" />
    <glyph glyph-name="FL007Ch" unicode="|" horiz-adv-x="423" 
d="M322 1206v-1419h-220v1419h220z" />
    <glyph glyph-name="FL0021h" unicode="}" horiz-adv-x="546" 
d="M102 776v217h342v-993h-219v776h-123z" />
    <glyph glyph-name="FL007Eh" unicode="~" 
d="M1718 993h-1616v-217h1528q41 0 59 -25q17 -24 17 -67v-78h-1399q-83 0 -143 -59q-62 -60 -62 -160v-170q0 -53 18 -93q19 -42 46 -68q29 -28 65 -42q35 -14 78 -14h1616v776q0 54 -17 92q-20 44 -46 69q-28 26 -67 42q-35 14 -77 14zM397 389h1309v-172h-1307
q-30 0 -54 26q-23 24 -23 66v17q4 34 22 49q17 14 53 14z" />
    <glyph glyph-name="FL007Fh" horiz-adv-x="528" 
 />
    <glyph glyph-name="FL00A1h" unicode="&#xa1;" horiz-adv-x="423" 
d="M100 680h219v-680h-219v680zM100 776v217h219v-217h-219z" />
    <glyph glyph-name="FL00A2h" unicode="&#xa2;" 
d="M979 -193v193h-670q-43 0 -78 14q-36 14 -65 42q-27 26 -46 68q-18 40 -18 93v559q0 52 18 92q20 44 46 69q29 28 65 42q35 14 78 14h670v193h219v-193h727v-217h-727v-559h727v-217h-727v-193h-219zM393 217h586v559h-582q-40 0 -58 -25q-17 -24 -17 -67v-375
q0 -42 20 -66q21 -26 51 -26z" />
    <glyph glyph-name="FL00A3h" unicode="&#xa3;" horiz-adv-x="1998" 
d="M102 608h306v168q0 52 17 90q20 44 46 69q30 29 66 43q37 15 77 15h336v-217h-248q-36 0 -56 -15q-19 -15 -19 -59v-94h766v-219h-766v-172h1269v-217h-1794v217h306v174h-306v217z" />
    <glyph glyph-name="FL00A4h" unicode="&#xa4;" horiz-adv-x="2029" 
d="M1661 893h-1290l-47 100h-224l138 -354v-293l-138 -346h224l47 104h1284l49 -104h223l-141 352v281l141 360h-223zM1599 283h-1175v434h1175v-434z" />
    <glyph glyph-name="FL00A5h" unicode="&#xa5;" 
d="M309 307h594v84h-594q-41 0 -78 15q-38 15 -65 41t-46 68q-18 41 -18 93v385h220v-293q0 -42 20 -66q21 -26 51 -26h1235q30 0 54 26t24 66v293h219v-385q0 -55 -17 -93q-19 -42 -46 -68q-26 -25 -67 -41q-37 -15 -77 -15h-596v-84h596v-164h-596v-84h596v-163h-596v-224
h-219v224h-594v163h594v84h-594v164z" />
    <glyph glyph-name="FL00A6h" unicode="&#xa6;" horiz-adv-x="423" 
d="M322 -213h-220v639h220v-639zM322 567h-220v639h220v-639z" />
    <glyph glyph-name="FL00A7h" unicode="&#xa7;" 
d="M102 0h1526q30 0 54 18t24 60v18q0 44 -19 60t-57 16h-1323q-83 0 -143 56q-62 57 -62 161v170q0 28 10 58q10 31 21 51q-12 22 -21 50q-10 30 -10 60v170q0 104 62 161q60 56 143 56h1618v-217h-1528q-37 0 -56 -15t-19 -59v-18q0 -42 23 -59q25 -19 54 -19h1321
q84 0 144 -59q61 -60 61 -160v-170q0 -34 -10 -60q-12 -30 -21 -50q7 -15 21 -51q10 -26 10 -58v-170q0 -104 -61 -161q-60 -56 -144 -56h-1618v217zM1706 485q0 64 -49 74h-1260q-37 0 -56 -15t-19 -59v-18q0 -39 19 -57q21 -20 48 -21h1239q29 0 54 19q24 18 24 59v18z
" />
    <glyph glyph-name="FL00A8h" unicode="&#xa8;" horiz-adv-x="905" 
d="M322 1071v-217h-220v217h220zM584 854v217h219v-217h-219z" />
    <glyph glyph-name="FL00A9h" unicode="&#xa9;" horiz-adv-x="579" 
d="M291 1110q-8 0 26 -8l62 -15q31 -19 44 -34q17 -18 26 -37q28 -46 28 -92q0 -19 -8 -43q-7 -20 -20 -50q-17 -29 -60 -60q-44 -32 -98 -32q-25 0 -47 7q-26 8 -47 18q-24 18 -37 31q-16 16 -31 36q-27 45 -27 93q0 33 16 70q15 34 42 60q29 28 60 41q35 15 71 15z
M291 1081q-89 0 -135 -77q-21 -33 -21 -80q0 -41 21 -74q17 -36 55 -59q23 -13 43 -16q22 -3 33 -3h4q13 0 76 19q35 22 57 59q22 38 22 74v8q0 28 -13 54q-14 28 -34 48t-48 34q-26 13 -54 13h-6zM350 897l29 -10q-18 -70 -88 -70q-98 0 -98 107q0 106 98 106q69 0 84 -57
l-31 -8q-18 39 -53 39q-66 0 -66 -80q0 -74 64 -74q44 0 61 47z" />
    <glyph glyph-name="FL00AAh" unicode="&#xaa;" 
d="M1718 993h-1616v-217h1528q41 0 59 -25q17 -24 17 -67v-78h-1399q-83 0 -143 -59q-62 -60 -62 -160v-170q0 -53 18 -93q19 -42 46 -68q29 -28 65 -42q35 -14 78 -14h1409q42 0 77 14q39 16 67 42q27 26 46 68q17 38 17 93v559q0 54 -17 92q-20 44 -46 69q-28 26 -67 42
q-35 14 -77 14zM397 389h1309v-80q0 -42 -20 -66q-21 -26 -52 -26h-1235q-30 0 -54 26q-23 24 -23 66v17q4 34 22 49q17 14 53 14z" />
    <glyph glyph-name="FL00ABh" unicode="&#xab;" horiz-adv-x="743" 
d="M641 621l-152 -125l152 -121v-228l-217 172v357l217 172v-227zM319 621l-151 -125l151 -121v-228l-217 172v357l217 172v-227z" />
    <glyph glyph-name="FL00ACh" unicode="&#xac;" horiz-adv-x="1650" 
d="M102 606h1446v-606h-217v389h-1229v217z" />
    <glyph glyph-name="FL00AEh" unicode="&#xad;" horiz-adv-x="1060" 
d="M102 389v217h856v-217h-856z" />
    <glyph glyph-name="registered" unicode="&#xae;" horiz-adv-x="579" 
d="M291 1110q49 0 88 -27q45 -22 71 -68q27 -48 27 -91q0 -18 -8 -44q-7 -22 -23 -51q-7 -19 -27 -36q-21 -18 -42 -29q-26 -14 -45 -19q-23 -6 -37 -6h-4q-104 0 -164 90q-25 45 -25 95q0 19 6 39q1 4 3 9t4.5 11t3.5 10q23 45 38 61q17 18 40 29q39 27 94 27zM291 1079
q-89 0 -135 -78q-23 -41 -23 -77l5 -21q2 -8 16 -55q0 -9 14 -22q15 -14 35 -25q28 -16 43 -22q22 -9 39 -9h6q38 0 63 14q29 16 68 64q14 27 19 52l5 24l-2 6q0 28 -12 55q-11 25 -34 48t-48 34q-27 12 -53 12h-6zM209 821v201h65q44 0 54 -10q2 -2 6.5 -4t6.5 -3
q3 -2 9 -8q12 -18 12 -28q0 -54 -59 -58q16 -7 24 -17q2 -3 5.5 -7.5t8.5 -12.5t9 -14l25 -39h-41l-15 33q-28 38 -36 43q-8 8 -23 8h-20v-84h-31zM240 930h39q27 0 38 9t11 26q0 16 -21 28h-67v-63z" />
    <glyph glyph-name="FL00AFh" unicode="&#xaf;" horiz-adv-x="1650" 
d="M102 1069h1446v-217h-1446v217z" />
    <glyph glyph-name="FL00B0h" unicode="&#xb0;" horiz-adv-x="333" 
d="M127 999v-71h80v71h-80zM276 1071v-217h-219v217h219z" />
    <glyph glyph-name="FL00B1h" unicode="&#xb1;" horiz-adv-x="1650" 
d="M717 993h217v-215h614v-217h-614v-215h-217v215h-615v217h615v215zM102 217h1446v-217h-1446v217z" />
    <glyph glyph-name="FL00B2h" unicode="&#xb2;" horiz-adv-x="1116" 
d="M1014 719h-752v4q0 23 9 26t28 3h612q42 0 72 27q31 28 31 81v103q0 52 -31 80t-72 28h-809v-147h732q18 0 21 -3t3 -8q0 -10 -4 -13q-5 -3 -20 -3h-629q-41 0 -72 -31t-31 -82v-209h912v144z" />
    <glyph glyph-name="FL00B3h" unicode="&#xb3;" horiz-adv-x="1116" 
d="M102 723h732q15 0 20 3q4 3 4 13q0 4 -3 7q-4 4 -21 4h-732v147h732q15 0 20 3q4 3 4 13q0 5 -3 8t-21 3h-732v147h809q41 0 72 -28t31 -80v-70q0 -9 -16 -36q-6 -10 -12 -21.5t-7 -12.5q5 -9 19 -28q16 -22 16 -31v-78q0 -53 -31 -81q-30 -27 -72 -27h-809v145z" />
    <glyph glyph-name="FL00B4h" unicode="&#xb4;" horiz-adv-x="518" 
d="M236 1071l-183 -217h207l205 217h-229z" />
    <glyph glyph-name="FL0193h" unicode="&#xb5;" 
d="M1925 993h-1823v-993h1823v993zM1706 217h-1384v559h1384v-559z" />
    <glyph glyph-name="FL00B6h" unicode="&#xb6;" horiz-adv-x="1667" 
d="M756 702v-1044h-219v623h-228q-43 0 -78 14q-36 14 -65 42q-28 27 -46 67t-18 94v278q0 50 18 90q20 44 46 69q31 29 65 43q37 15 78 15h1256v-1335h-219v1118h-515q-34 0 -55 -15q-20 -14 -20 -59z" />
    <glyph glyph-name="FL00B7h" unicode="&#xb7;" horiz-adv-x="423" 
d="M322 606v-217h-220v217h220z" />
    <glyph glyph-name="FL00B8h" unicode="&#xb8;" horiz-adv-x="413" 
d="M100 4h211v-346h-600v211h389v135z" />
    <glyph glyph-name="FL00B9h" unicode="&#xb9;" horiz-adv-x="1161" 
d="M1059 723v-148h-957v148h418v199h-418v149h580v-348h377z" />
    <glyph glyph-name="FL00BAh" unicode="&#xba;" horiz-adv-x="1116" 
d="M911 1071h-704q-40 0 -73 -28q-32 -27 -32 -80v-279q0 -54 32 -81q33 -28 73 -28h704q41 0 72 28t31 81v279q0 50 -31 79t-72 29zM819 731h-524q-35 0 -35 45v94q0 45 37 45h522q39 0 39 -45v-94q0 -45 -39 -45z" />
    <glyph glyph-name="FL00BBh" unicode="&#xbb;" horiz-adv-x="743" 
d="M100 621l152 -125l-152 -121v-228l217 172v357l-217 172v-227zM422 621l151 -125l-151 -121v-228l217 172v357l-217 172v-227z" />
    <glyph glyph-name="FL00BCh" unicode="&#xbc;" horiz-adv-x="2424" 
d="M1485 993h262l-813 -993h-266zM1026 645v-147h-924v147h402v199h-402v149h564v-348h360zM1571 496v-174h596v174h155v-496h-155v176h-756v320h160z" />
    <glyph glyph-name="FL00BDh" unicode="&#xbd;" horiz-adv-x="2424" 
d="M1026 498v147h-360v348h-564v-149h402v-199h-402v-147h924zM1747 993h-262l-817 -993h266zM2322 143h-751v4q0 23 9 26t28 3h612q41 0 72 28q30 27 30 81v102q0 54 -30 81q-31 28 -72 28h-809v-148h731q19 0 22 -3t3 -7q0 -10 -4 -13q-5 -3 -21 -3h-629q-40 0 -71 -31
t-31 -82v-209h911v143z" />
    <glyph glyph-name="FL00BEh" unicode="&#xbe;" horiz-adv-x="2373" 
d="M1434 993h262l-813 -993h-267zM1520 496v-174h596v174h155v-496h-155v176h-756v320h160zM102 643h732q15 0 20 3q4 3 4 13q0 5 -3 8t-21 3h-732v147h732q15 0 20 3q4 3 4 14q0 4 -3 7t-21 3h-732v147h809q42 0 72 -27q31 -28 31 -81v-70q0 -9 -16 -36q-6 -10 -12 -21.5
t-7 -12.5q5 -9 19 -28q16 -22 16 -31v-78q0 -53 -31 -81q-30 -27 -72 -27h-809v145z" />
    <glyph glyph-name="FL00BFh" unicode="&#xbf;" 
d="M1456 680h219v-74q0 -100 -61 -160q-60 -59 -144 -59h-1071q-30 0 -54 -18q-23 -17 -23 -60v-18q0 -44 19 -59t56 -15h1528v-217h-1618q-83 0 -143 56q-62 57 -62 161v170q0 104 62 161q60 56 143 56h1073q37 0 57 17q19 16 19 59zM1456 776v217h219v-217h-219z" />
    <glyph glyph-name="FL00C0h" unicode="&#xc0;" horiz-adv-x="1929" 
d="M936 1329l182 -217h-207l-204 217h229zM324 0h-271l803 993h217l803 -993h-270l-197 240h-889zM965 782l-275 -331h549z" />
    <glyph glyph-name="FL00C1h" unicode="&#xc1;" horiz-adv-x="1929" 
d="M811 1112l182 217h230l-205 -217h-207zM324 0h-271l803 993h217l803 -993h-270l-197 240h-889zM965 782l-275 -331h549z" />
    <glyph glyph-name="FL00C2h" unicode="&#xc2;" horiz-adv-x="1929" 
d="M1090 1112l-125 152l-121 -152h-228l172 217h357l172 -217h-227zM324 0h-271l803 993h217l803 -993h-270l-197 240h-889zM965 782l-275 -331h549z" />
    <glyph glyph-name="FL00C3h" unicode="&#xc3;" horiz-adv-x="1929" 
d="M956 1112l-122 152l-121 -152h-228l172 217h324l123 -151l121 151h227l-172 -217h-324zM324 0h-271l803 993h217l803 -993h-270l-197 240h-889zM965 782l-275 -331h549z" />
    <glyph glyph-name="FL00C4h" unicode="&#xc4;" horiz-adv-x="1929" 
d="M836 1329v-217h-220v217h220zM1098 1112v217h219v-217h-219zM324 0h-271l803 993h217l803 -993h-270l-197 240h-889zM965 782l-275 -331h549z" />
    <glyph glyph-name="FL00C5h" unicode="&#xc5;" horiz-adv-x="1929" 
d="M926 1257v-71h80v71h-80zM1075 1329v-217h-219v217h219zM324 0h-271l803 993h217l803 -993h-270l-197 240h-889zM965 782l-275 -331h549z" />
    <glyph glyph-name="FL00C6h" unicode="&#xc6;" horiz-adv-x="3633" 
d="M1927 217h1604v-217h-1825v389h-1384v-389h-220v776q0 52 18 92q20 44 46 69q29 28 65 42q35 14 78 14h3222v-217h-1604v-170h1604v-217h-1604v-172zM322 684v-78h1384v170h-1309q-40 0 -58 -25q-17 -24 -17 -67z" />
    <glyph glyph-name="FL00C7h" unicode="&#xc7;" 
d="M309 993h1409q40 0 77 -15t67 -43q26 -25 46 -69q17 -38 17 -90v-149h-219v57q0 42 -19 67t-57 25h-1233q-40 0 -58 -25q-17 -24 -17 -67v-375q0 -42 20 -66q21 -26 51 -26h1235q30 0 54 26q24 25 24 66v60h219v-152q0 -55 -17 -93q-19 -42 -46 -68q-28 -26 -67 -42
q-35 -14 -77 -14h-475v-342h-600v211h389v131h-723q-43 0 -78 14q-36 14 -65 42q-27 26 -46 68q-18 40 -18 93v559q0 52 18 92q20 44 46 69q29 28 65 42q35 14 78 14z" />
    <glyph glyph-name="FL00C8h" unicode="&#xc8;" 
d="M987 1329l182 -217h-206l-205 217h229zM322 217h1603v-217h-1823v993h1823v-217h-1603v-170h1603v-217h-1603v-172z" />
    <glyph glyph-name="FL00C9h" unicode="&#xc9;" 
d="M858 1112l182 217h230l-205 -217h-207zM322 217h1603v-217h-1823v993h1823v-217h-1603v-170h1603v-217h-1603v-172z" />
    <glyph glyph-name="FL00CAh" unicode="&#xca;" 
d="M1137 1112l-125 152l-121 -152h-227l172 217h356l172 -217h-227zM322 217h1603v-217h-1823v993h1823v-217h-1603v-170h1603v-217h-1603v-172z" />
    <glyph glyph-name="FL00CBh" unicode="&#xcb;" 
d="M883 1329v-217h-219v217h219zM1145 1112v217h219v-217h-219zM322 217h1603v-217h-1823v993h1823v-217h-1603v-170h1603v-217h-1603v-172z" />
    <glyph glyph-name="FL00CCh" unicode="&#xcc;" 
d="M987 1329l182 -217h-206l-205 217h229zM1925 217v-217h-1823v217h801v559h-801v217h1823v-217h-803v-559h803z" />
    <glyph glyph-name="FL00CDh" unicode="&#xcd;" 
d="M858 1112l182 217h230l-205 -217h-207zM1925 217v-217h-1823v217h801v559h-801v217h1823v-217h-803v-559h803z" />
    <glyph glyph-name="FL00CEh" unicode="&#xce;" 
d="M1137 1112l-125 152l-121 -152h-227l172 217h356l172 -217h-227zM1925 217v-217h-1823v217h801v559h-801v217h1823v-217h-803v-559h803z" />
    <glyph glyph-name="FL00CFh" unicode="&#xcf;" 
d="M883 1329v-217h-219v217h219zM1145 1112v217h219v-217h-219zM1925 217v-217h-1823v217h801v559h-801v217h1823v-217h-803v-559h803z" />
    <glyph glyph-name="FL00D0h" unicode="&#xd0;" horiz-adv-x="2410" 
d="M102 389v217h383v387h1616q39 0 77 -15q37 -15 67 -43q26 -25 46 -69q17 -38 17 -90v-559q0 -55 -17 -93q-19 -42 -46 -68q-28 -26 -67 -42q-35 -14 -77 -14h-1616v389h-383zM705 217h1306q30 0 54 26q24 25 24 66v375q0 42 -19 67t-57 25h-1308v-170h528v-217h-528v-172
z" />
    <glyph glyph-name="FL00D1h" unicode="&#xd1;" 
d="M102 993h222l1382 -753v753h219v-993h-221l-1382 754v-754h-220v993zM1032 1112l-123 152l-121 -152h-227l172 217h324l123 -151l120 151h228l-172 -217h-324z" />
    <glyph glyph-name="FL00D2h" unicode="&#xd2;" 
d="M987 1329l182 -217h-206l-205 217h229zM309 993h1409q42 0 77 -14q39 -16 67 -42q26 -25 46 -69q17 -38 17 -92v-559q0 -55 -17 -93q-19 -42 -46 -68q-28 -26 -67 -42q-35 -14 -77 -14h-1409q-43 0 -78 14q-36 14 -65 42q-27 26 -46 68q-18 40 -18 93v559q0 50 18 90
q20 44 46 69q31 29 65 43q37 15 78 15zM399 217h1235q31 0 52 26q20 24 20 66v375q0 43 -17 67q-18 25 -59 25h-1233q-37 0 -56 -25t-19 -67v-375q0 -42 23 -66q24 -26 54 -26z" />
    <glyph glyph-name="FL00D3h" unicode="&#xd3;" 
d="M393 217h1235q30 0 54 26q24 25 24 66v375q0 42 -19 67t-57 25h-1233q-40 0 -58 -25q-17 -24 -17 -67v-375q0 -42 20 -66q21 -26 51 -26zM309 993h1409q40 0 77 -15t67 -43q26 -25 46 -69q17 -38 17 -90v-559q0 -55 -17 -93q-19 -42 -46 -68q-28 -26 -67 -42
q-35 -14 -77 -14h-1409q-43 0 -78 14q-36 14 -65 42q-27 26 -46 68q-18 40 -18 93v559q0 52 18 92q20 44 46 69q29 28 65 42q35 14 78 14zM858 1112l182 217h230l-205 -217h-207z" />
    <glyph glyph-name="FL00D4h" unicode="&#xd4;" 
d="M309 993h1409q40 0 77 -15t67 -43q26 -25 46 -69q17 -38 17 -90v-559q0 -55 -17 -93q-19 -42 -46 -68q-28 -26 -67 -42q-35 -14 -77 -14h-1409q-43 0 -78 14q-36 14 -65 42q-27 26 -46 68q-18 40 -18 93v559q0 52 18 92q20 44 46 69q29 28 65 42q35 14 78 14zM393 217
h1235q30 0 54 26q24 25 24 66v375q0 42 -19 67t-57 25h-1233q-40 0 -58 -25q-17 -24 -17 -67v-375q0 -42 20 -66q21 -26 51 -26zM1137 1112l-125 152l-121 -152h-227l172 217h356l172 -217h-227z" />
    <glyph glyph-name="FL00D5h" unicode="&#xd5;" 
d="M309 993h1409q40 0 77 -15t67 -43q26 -25 46 -69q17 -38 17 -90v-559q0 -55 -17 -93q-19 -42 -46 -68q-28 -26 -67 -42q-35 -14 -77 -14h-1409q-43 0 -78 14q-36 14 -65 42q-27 26 -46 68q-18 40 -18 93v559q0 52 18 92q20 44 46 69q29 28 65 42q35 14 78 14zM393 217
h1235q30 0 54 26q24 25 24 66v375q0 42 -19 67t-57 25h-1233q-40 0 -58 -25q-17 -24 -17 -67v-375q0 -42 20 -66q21 -26 51 -26zM1004 1112l-123 152l-121 -152h-228l173 217h323l123 -151l121 151h227l-172 -217h-323z" />
    <glyph glyph-name="FL00D6h" unicode="&#xd6;" 
d="M393 217h1235q30 0 54 26q24 25 24 66v375q0 42 -19 67t-57 25h-1233q-40 0 -58 -25q-17 -24 -17 -67v-375q0 -42 20 -66q21 -26 51 -26zM309 993h1409q40 0 77 -15t67 -43q26 -25 46 -69q17 -38 17 -90v-559q0 -55 -17 -93q-19 -42 -46 -68q-28 -26 -67 -42
q-35 -14 -77 -14h-1409q-43 0 -78 14q-36 14 -65 42q-27 26 -46 68q-18 40 -18 93v559q0 52 18 92q20 44 46 69q29 28 65 42q35 14 78 14zM883 1329v-217h-219v217h219zM1145 1112v217h219v-217h-219z" />
    <glyph glyph-name="FL00D7h" unicode="&#xd7;" horiz-adv-x="872" 
d="M662 877l153 -154l-225 -225l225 -226l-153 -153l-226 225l-225 -225l-154 153l226 226l-226 225l154 154l225 -226z" />
    <glyph glyph-name="FL00D8h" unicode="&#xd8;" 
d="M309 993h1409q40 0 77 -15t67 -43q26 -25 46 -69q17 -38 17 -90v-559q0 -55 -17 -93q-19 -42 -46 -68q-28 -26 -67 -42q-35 -14 -77 -14h-1409q-43 0 -78 14q-36 14 -65 42q-27 26 -46 68q-18 40 -18 93v559q0 52 18 92q20 44 46 69q29 28 65 42q35 14 78 14zM1630 776
h-258l-452 -559h708q30 0 54 26q24 25 24 66v375q0 42 -19 67t-57 25zM393 217h252l455 559h-703q-40 0 -58 -25q-17 -24 -17 -67v-375q0 -42 20 -66q21 -26 51 -26z" />
    <glyph glyph-name="FL00D9h" unicode="&#xd9;" 
d="M987 1329l182 -217h-206l-205 217h229zM393 217h1313v776h219v-993h-1616q-43 0 -78 14q-36 14 -65 42q-27 26 -46 68q-18 40 -18 93v776h220v-684q0 -42 20 -66q21 -26 51 -26z" />
    <glyph glyph-name="FL00DAh" unicode="&#xda;" 
d="M858 1112l182 217h230l-205 -217h-207zM393 217h1313v776h219v-993h-1616q-43 0 -78 14q-36 14 -65 42q-27 26 -46 68q-18 40 -18 93v776h220v-684q0 -42 20 -66q21 -26 51 -26z" />
    <glyph glyph-name="FL00DBh" unicode="&#xdb;" 
d="M1137 1112l-125 152l-121 -152h-227l172 217h356l172 -217h-227zM393 217h1313v776h219v-993h-1616q-43 0 -78 14q-36 14 -65 42q-27 26 -46 68q-18 40 -18 93v776h220v-684q0 -42 20 -66q21 -26 51 -26z" />
    <glyph glyph-name="FL00DCh" unicode="&#xdc;" 
d="M883 1329v-217h-219v217h219zM1145 1112v217h219v-217h-219zM393 217h1313v776h219v-993h-1616q-43 0 -78 14q-36 14 -65 42q-27 26 -46 68q-18 40 -18 93v776h220v-684q0 -42 20 -66q21 -26 51 -26z" />
    <glyph glyph-name="FL00DDh" unicode="&#xdd;" 
d="M102 217h1526q29 0 54 19q24 18 24 59v96h-1397q-41 0 -78 15q-38 15 -65 41t-46 68q-18 41 -18 93v385h220v-293q0 -42 20 -66q21 -26 51 -26h1313v385h219v-776q0 -104 -61 -161q-60 -56 -144 -56h-1618v217zM858 1112l182 217h230l-205 -217h-207z" />
    <glyph glyph-name="FL00DEh" unicode="&#xde;" 
d="M322 0h-220v993h220v-188h1396q40 0 77 -15q36 -14 67 -44q27 -26 46 -68q17 -38 17 -90v-168q0 -55 -17 -93q-19 -42 -46 -68q-28 -26 -67 -42q-35 -14 -77 -14h-1396v-203zM322 588v-168h1306q30 0 53 17q25 19 25 59v18q0 44 -20 58q-22 16 -56 16h-1308z" />
    <glyph glyph-name="FL00DFh" unicode="&#xdf;" 
d="M399 774q-30 0 -54 -25q-23 -24 -23 -67v-1004h-220v1096q0 52 18 92q20 44 47 70q30 29 66 43q35 14 76 14h1409q40 0 77 -15t67 -43q26 -25 46 -69q17 -38 17 -90v-141q0 -47 -24 -84q-22 -34 -50 -55q28 -18 50 -45q24 -30 24 -82v-152q0 -52 -17 -90q-20 -44 -46 -69
q-30 -28 -67 -43t-77 -15h-1124v217h1036q38 0 57 15t19 59v20q0 42 -24 60t-54 18h-1034v217h1034q29 0 54 19q24 18 24 59v18q0 44 -19 59t-57 15h-1233z" />
    <glyph glyph-name="FL00E0h" unicode="&#xe0;" 
d="M987 1329l182 -217h-206l-205 217h229zM1925 0h-219v389h-1384v-389h-220v776q0 52 18 92q20 44 46 69q29 28 65 42q35 14 78 14h1409q40 0 77 -15t67 -43q26 -25 46 -69q17 -38 17 -90v-776zM322 684v-78h1384v78q0 42 -19 67t-57 25h-1233q-40 0 -58 -25
q-17 -24 -17 -67z" />
    <glyph glyph-name="FL00E1h" unicode="&#xe1;" 
d="M858 1112l182 217h230l-205 -217h-207zM1925 0h-219v389h-1384v-389h-220v776q0 52 18 92q20 44 46 69q29 28 65 42q35 14 78 14h1409q40 0 77 -15t67 -43q26 -25 46 -69q17 -38 17 -90v-776zM322 684v-78h1384v78q0 42 -19 67t-57 25h-1233q-40 0 -58 -25
q-17 -24 -17 -67z" />
    <glyph glyph-name="FL00E2h" unicode="&#xe2;" 
d="M1137 1112l-125 152l-121 -152h-227l172 217h356l172 -217h-227zM1925 0h-219v389h-1384v-389h-220v776q0 52 18 92q20 44 46 69q29 28 65 42q35 14 78 14h1409q40 0 77 -15t67 -43q26 -25 46 -69q17 -38 17 -90v-776zM322 684v-78h1384v78q0 42 -19 67t-57 25h-1233
q-40 0 -58 -25q-17 -24 -17 -67z" />
    <glyph glyph-name="FL00E3h" unicode="&#xe3;" 
d="M1004 1112l-123 152l-121 -152h-228l173 217h323l123 -151l121 151h227l-172 -217h-323zM1925 0h-219v389h-1384v-389h-220v776q0 52 18 92q20 44 46 69q29 28 65 42q35 14 78 14h1409q40 0 77 -15t67 -43q26 -25 46 -69q17 -38 17 -90v-776zM322 684v-78h1384v78
q0 42 -19 67t-57 25h-1233q-40 0 -58 -25q-17 -24 -17 -67z" />
    <glyph glyph-name="FL00E4h" unicode="&#xe4;" 
d="M883 1329v-217h-219v217h219zM1145 1112v217h219v-217h-219zM1925 0h-219v389h-1384v-389h-220v776q0 52 18 92q20 44 46 69q29 28 65 42q35 14 78 14h1409q40 0 77 -15t67 -43q26 -25 46 -69q17 -38 17 -90v-776zM322 684v-78h1384v78q0 42 -19 67t-57 25h-1233
q-40 0 -58 -25q-17 -24 -17 -67z" />
    <glyph glyph-name="FL00E5h" unicode="&#xe5;" 
d="M973 1257v-71h80v71h-80zM1925 0h-219v389h-1384v-389h-220v776q0 52 18 92q20 44 46 69q29 28 65 42q35 14 78 14h1409q40 0 77 -15t67 -43q26 -25 46 -69q17 -38 17 -90v-776zM322 684v-78h1384v78q0 42 -19 67t-57 25h-1233q-40 0 -58 -25q-17 -24 -17 -67zM1122 1329
v-217h-219v217h219z" />
    <glyph glyph-name="FL00E6h" unicode="&#xe6;" horiz-adv-x="3633" 
d="M1927 217h1604v-217h-1825v389h-1384v-389h-220v776q0 52 18 92q20 44 46 69q29 28 65 42q35 14 78 14h3222v-217h-1604v-170h1604v-217h-1604v-172zM322 684v-78h1384v170h-1309q-40 0 -58 -25q-17 -24 -17 -67z" />
    <glyph glyph-name="FL00E7h" unicode="&#xe7;" 
d="M393 217h1532v-217h-608v-342h-600v211h389v131h-797q-43 0 -78 14q-36 14 -65 42q-27 26 -46 68q-18 40 -18 93v559q0 52 18 92q20 44 46 69q29 28 65 42q35 14 78 14h1616v-217h-1528q-40 0 -58 -25q-17 -24 -17 -67v-375q0 -42 20 -66q21 -26 51 -26z" />
    <glyph glyph-name="FL00E8h" unicode="&#xe8;" 
d="M987 1329l182 -217h-206l-205 217h229zM322 217h1603v-217h-1823v993h1823v-217h-1603v-170h1603v-217h-1603v-172z" />
    <glyph glyph-name="FL00E9h" unicode="&#xe9;" 
d="M858 1112l182 217h230l-205 -217h-207zM322 217h1603v-217h-1823v993h1823v-217h-1603v-170h1603v-217h-1603v-172z" />
    <glyph glyph-name="FL00EAh" unicode="&#xea;" 
d="M1137 1112l-125 152l-121 -152h-227l172 217h356l172 -217h-227zM322 217h1603v-217h-1823v993h1823v-217h-1603v-170h1603v-217h-1603v-172z" />
    <glyph glyph-name="FL00EBh" unicode="&#xeb;" 
d="M883 1329v-217h-219v217h219zM1145 1112v217h219v-217h-219zM322 217h1603v-217h-1823v993h1823v-217h-1603v-170h1603v-217h-1603v-172z" />
    <glyph glyph-name="FL00ECh" unicode="&#xec;" horiz-adv-x="425" 
d="M324 0h-222v993h222v-993zM188 1329l183 -217h-207l-205 217h229z" />
    <glyph glyph-name="FL00EDh" unicode="&#xed;" horiz-adv-x="425" 
d="M324 0h-222v993h222v-993zM59 1112l183 217h229l-205 -217h-207z" />
    <glyph glyph-name="FL00EEh" unicode="&#xee;" horiz-adv-x="425" 
d="M324 0h-222v993h222v-993zM336 1112l-125 152l-121 -152h-227l172 217h356l172 -217h-227z" />
    <glyph glyph-name="FL00EFh" unicode="&#xef;" horiz-adv-x="425" 
d="M324 0h-222v993h222v-993zM84 1329v-217h-219v217h219zM346 1112v217h219v-217h-219z" />
    <glyph glyph-name="FL00F0h" unicode="&#xf0;" 
d="M883 1102h217v-109h618q42 0 77 -14q39 -16 67 -42q26 -25 46 -69q17 -38 17 -92v-559q0 -55 -17 -93q-19 -42 -46 -68q-28 -26 -67 -42q-35 -14 -77 -14h-1409q-43 0 -78 14q-36 14 -65 42q-27 26 -46 68q-18 40 -18 93v170q0 100 62 160q60 59 143 59h1399v78
q0 43 -17 67q-18 25 -59 25h-530v-96h-217v96h-781v217h781v109zM1706 389h-1309q-36 0 -53 -14q-18 -15 -22 -49v-17q0 -42 23 -66q24 -26 54 -26h1235q31 0 52 26q20 24 20 66v80z" />
    <glyph glyph-name="FL00F1h" unicode="&#xf1;" 
d="M1628 776h-1306v-776h-220v993h1616q42 0 77 -14q39 -16 67 -42q26 -25 46 -69q17 -38 17 -92v-776h-219v684q0 42 -24 67t-54 25zM997 1112l-123 152l-120 -152h-228l172 217h324l123 -151l121 151h227l-172 -217h-324z" />
    <glyph glyph-name="FL00F2h" unicode="&#xf2;" 
d="M987 1329l182 -217h-206l-205 217h229zM309 993h1409q42 0 77 -14q39 -16 67 -42q26 -25 46 -69q17 -38 17 -92v-559q0 -55 -17 -93q-19 -42 -46 -68q-28 -26 -67 -42q-35 -14 -77 -14h-1409q-43 0 -78 14q-36 14 -65 42q-27 26 -46 68q-18 40 -18 93v559q0 50 18 90
q20 44 46 69q31 29 65 43q37 15 78 15zM399 217h1235q31 0 52 26q20 24 20 66v375q0 43 -17 67q-18 25 -59 25h-1233q-37 0 -56 -25t-19 -67v-375q0 -42 23 -66q24 -26 54 -26z" />
    <glyph glyph-name="FL00F3h" unicode="&#xf3;" 
d="M393 217h1235q30 0 54 26q24 25 24 66v375q0 42 -19 67t-57 25h-1233q-40 0 -58 -25q-17 -24 -17 -67v-375q0 -42 20 -66q21 -26 51 -26zM309 993h1409q40 0 77 -15t67 -43q26 -25 46 -69q17 -38 17 -90v-559q0 -55 -17 -93q-19 -42 -46 -68q-28 -26 -67 -42
q-35 -14 -77 -14h-1409q-43 0 -78 14q-36 14 -65 42q-27 26 -46 68q-18 40 -18 93v559q0 52 18 92q20 44 46 69q29 28 65 42q35 14 78 14zM858 1112l182 217h230l-205 -217h-207z" />
    <glyph glyph-name="FL00F4h" unicode="&#xf4;" 
d="M309 993h1409q40 0 77 -15t67 -43q26 -25 46 -69q17 -38 17 -90v-559q0 -55 -17 -93q-19 -42 -46 -68q-28 -26 -67 -42q-35 -14 -77 -14h-1409q-43 0 -78 14q-36 14 -65 42q-27 26 -46 68q-18 40 -18 93v559q0 52 18 92q20 44 46 69q29 28 65 42q35 14 78 14zM393 217
h1235q30 0 54 26q24 25 24 66v375q0 42 -19 67t-57 25h-1233q-40 0 -58 -25q-17 -24 -17 -67v-375q0 -42 20 -66q21 -26 51 -26zM1137 1112l-125 152l-121 -152h-227l172 217h356l172 -217h-227z" />
    <glyph glyph-name="FL00F5h" unicode="&#xf5;" 
d="M309 993h1409q40 0 77 -15t67 -43q26 -25 46 -69q17 -38 17 -90v-559q0 -55 -17 -93q-19 -42 -46 -68q-28 -26 -67 -42q-35 -14 -77 -14h-1409q-43 0 -78 14q-36 14 -65 42q-27 26 -46 68q-18 40 -18 93v559q0 52 18 92q20 44 46 69q29 28 65 42q35 14 78 14zM393 217
h1235q30 0 54 26q24 25 24 66v375q0 42 -19 67t-57 25h-1233q-40 0 -58 -25q-17 -24 -17 -67v-375q0 -42 20 -66q21 -26 51 -26zM1004 1112l-123 152l-121 -152h-228l173 217h323l123 -151l121 151h227l-172 -217h-323z" />
    <glyph glyph-name="FL00F6h" unicode="&#xf6;" 
d="M393 217h1235q30 0 54 26q24 25 24 66v375q0 42 -19 67t-57 25h-1233q-40 0 -58 -25q-17 -24 -17 -67v-375q0 -42 20 -66q21 -26 51 -26zM309 993h1409q40 0 77 -15t67 -43q26 -25 46 -69q17 -38 17 -90v-559q0 -55 -17 -93q-19 -42 -46 -68q-28 -26 -67 -42
q-35 -14 -77 -14h-1409q-43 0 -78 14q-36 14 -65 42q-27 26 -46 68q-18 40 -18 93v559q0 52 18 92q20 44 46 69q29 28 65 42q35 14 78 14zM883 1329v-217h-219v217h219zM1145 1112v217h219v-217h-219z" />
    <glyph glyph-name="FL00F7h" unicode="&#xf7;" horiz-adv-x="1650" 
d="M102 606h1446v-217h-1446v217zM936 217v-217h-219v217h219zM936 993v-217h-219v217h219z" />
    <glyph glyph-name="FL00F8h" unicode="&#xf8;" 
d="M1718 993h-1409q-41 0 -78 -15q-34 -14 -65 -43q-26 -25 -46 -69q-18 -40 -18 -90v-559q0 -53 18 -93q19 -42 46 -68q29 -28 65 -42q35 -14 78 -14h1409q42 0 77 14q39 16 67 42q27 26 46 68q17 38 17 93v559q0 54 -17 92q-20 44 -46 69q-28 26 -67 42q-35 14 -77 14z
M397 776h258l453 -559h-709q-30 0 -54 26q-23 24 -23 66v375q0 42 19 67t56 25zM1634 217h-252l-454 559h702q41 0 59 -25q17 -24 17 -67v-375q0 -42 -20 -66q-21 -26 -52 -26z" />
    <glyph glyph-name="FL00F9h" unicode="&#xf9;" 
d="M987 1329l182 -217h-206l-205 217h229zM1628 217q30 0 54 26q24 25 24 66v684h219v-776q0 -55 -17 -93q-19 -42 -46 -68q-28 -26 -67 -42q-35 -14 -77 -14h-1409q-43 0 -78 14q-36 14 -65 42q-27 26 -46 68q-18 40 -18 93v776h220v-684q0 -42 20 -66q21 -26 51 -26h1235z
" />
    <glyph glyph-name="FL00FAh" unicode="&#xfa;" 
d="M858 1112l182 217h230l-205 -217h-207zM1628 217q30 0 54 26q24 25 24 66v684h219v-776q0 -55 -17 -93q-19 -42 -46 -68q-28 -26 -67 -42q-35 -14 -77 -14h-1409q-43 0 -78 14q-36 14 -65 42q-27 26 -46 68q-18 40 -18 93v776h220v-684q0 -42 20 -66q21 -26 51 -26h1235z
" />
    <glyph glyph-name="FL00FBh" unicode="&#xfb;" 
d="M1137 1112l-125 152l-121 -152h-227l172 217h356l172 -217h-227zM1628 217q30 0 54 26q24 25 24 66v684h219v-776q0 -55 -17 -93q-19 -42 -46 -68q-28 -26 -67 -42q-35 -14 -77 -14h-1409q-43 0 -78 14q-36 14 -65 42q-27 26 -46 68q-18 40 -18 93v776h220v-684
q0 -42 20 -66q21 -26 51 -26h1235z" />
    <glyph glyph-name="FL00FCh" unicode="&#xfc;" 
d="M883 1329v-217h-219v217h219zM1145 1112v217h219v-217h-219zM1628 217q30 0 54 26q24 25 24 66v684h219v-776q0 -55 -17 -93q-19 -42 -46 -68q-28 -26 -67 -42q-35 -14 -77 -14h-1409q-43 0 -78 14q-36 14 -65 42q-27 26 -46 68q-18 40 -18 93v776h220v-684q0 -42 20 -66
q21 -26 51 -26h1235z" />
    <glyph glyph-name="FL00FDh" unicode="&#xfd;" 
d="M1122 0h-219v391h-594q-41 0 -78 15q-38 15 -65 41t-46 68q-18 41 -18 93v385h220v-293q0 -42 20 -66q21 -26 51 -26h1235q30 0 54 26t24 66v293h219v-385q0 -55 -17 -93q-19 -42 -46 -68q-26 -25 -67 -41q-37 -15 -77 -15h-596v-391zM858 1112l182 217h230l-205 -217
h-207z" />
    <glyph glyph-name="FL00FEh" unicode="&#xfe;" 
d="M322 0h-220v993h220v-188h1396q40 0 77 -15q36 -14 67 -44q27 -26 46 -68q17 -38 17 -90v-168q0 -55 -17 -93q-19 -42 -46 -68q-28 -26 -67 -42q-35 -14 -77 -14h-1396v-203zM322 588v-168h1306q30 0 53 17q25 19 25 59v18q0 44 -20 58q-22 16 -56 16h-1308z" />
    <glyph glyph-name="FL00FFh" unicode="&#xff;" 
d="M1122 0h-219v391h-594q-41 0 -78 15q-38 15 -65 41t-46 68q-18 41 -18 93v385h220v-293q0 -42 20 -66q21 -26 51 -26h1235q30 0 54 26t24 66v293h219v-385q0 -55 -17 -93q-19 -42 -46 -68q-26 -25 -67 -41q-37 -15 -77 -15h-596v-391zM883 1329v-217h-219v217h219z
M1145 1112v217h219v-217h-219z" />
    <glyph glyph-name="FL0152h" unicode="&#x152;" horiz-adv-x="3497" 
d="M1802 217h1594v-217h-3087q-43 0 -78 14q-36 14 -65 42q-27 26 -46 68q-18 40 -18 93v559q0 52 18 92q20 44 46 69q29 28 65 42q35 14 78 14h3087v-217h-1594v-170h1594v-217h-1594v-172zM393 217h1190v559h-1186q-40 0 -58 -25q-17 -24 -17 -67v-375q0 -42 20 -66
q21 -26 51 -26z" />
    <glyph glyph-name="FL0153h" unicode="&#x153;" horiz-adv-x="3497" 
d="M1802 217h1594v-217h-3087q-43 0 -78 14q-36 14 -65 42q-27 26 -46 68q-18 40 -18 93v559q0 52 18 92q20 44 46 69q29 28 65 42q35 14 78 14h3087v-217h-1594v-170h1594v-217h-1594v-172zM393 217h1190v559h-1186q-40 0 -58 -25q-17 -24 -17 -67v-375q0 -42 20 -66
q21 -26 51 -26z" />
    <glyph glyph-name="FL0160h" unicode="&#x160;" 
d="M102 217h1526q29 0 54 19q24 18 24 59v18q0 44 -19 60t-57 16h-1323q-83 0 -143 56q-62 57 -62 161v170q0 104 62 161q60 56 143 56h1618v-217h-1528q-37 0 -56 -15t-19 -59v-18q0 -42 23 -59q25 -19 54 -19h1321q84 0 144 -59q61 -60 61 -160v-170q0 -104 -61 -161
q-60 -56 -144 -56h-1618v217zM891 1329l125 -151l121 151h227l-172 -217h-356l-172 217h227z" />
    <glyph glyph-name="FL0161h" unicode="&#x161;" 
d="M102 217h1526q29 0 54 19q24 18 24 59v18q0 44 -19 60t-57 16h-1323q-83 0 -143 56q-62 57 -62 161v170q0 104 62 161q60 56 143 56h1618v-217h-1528q-37 0 -56 -15t-19 -59v-18q0 -42 23 -59q25 -19 54 -19h1321q84 0 144 -59q61 -60 61 -160v-170q0 -104 -61 -161
q-60 -56 -144 -56h-1618v217zM891 1329l125 -151l121 151h227l-172 -217h-356l-172 217h227z" />
    <glyph glyph-name="FL0178h" unicode="&#x178;" 
d="M102 217h1526q29 0 54 19q24 18 24 59v96h-1397q-41 0 -78 15q-38 15 -65 41t-46 68q-18 41 -18 93v385h220v-293q0 -42 20 -66q21 -26 51 -26h1313v385h219v-776q0 -104 -61 -161q-60 -56 -144 -56h-1618v217zM883 1329v-217h-219v217h219zM1145 1112v217h219v-217h-219
z" />
    <glyph glyph-name="FL017Dh" unicode="&#x17d;" 
d="M322 217h1603v-217h-1823v387q0 100 62 160q60 59 143 59h1321q29 0 54 19q24 18 24 59v92h-1604v217h1823v-387q0 -104 -61 -161q-60 -56 -144 -56h-1323q-37 0 -56 -16t-19 -60v-96zM891 1329l125 -151l121 151h227l-172 -217h-356l-172 217h227z" />
    <glyph glyph-name="FL017Eh" unicode="&#x17e;" 
d="M1925 217v-217h-1823v190l1278 586h-1278v217h1823v-190l-1278 -586h1278zM891 1329l125 -151l121 151h227l-172 -217h-356l-172 217h227z" />
    <glyph glyph-name="FL0192h" unicode="&#x192;" horiz-adv-x="2383" 
d="M2281 571q0 38 -190 105q107 12 107 74v16l-291 74q55 1 55 73l-31 29h-340l13 80l-103 10l-291 -53l-6 14l6 39l-51 45l-262 -121l-131 76q-42 -17 -79 -51q-38 -35 -95 -104l-158 49h-8q-70 0 -70 -189l-168 17l-8 -78l82 -98l-160 -25l17 -64l160 -69l-91 -66
q0 -53 43 -53l234 -41l-43 -45v-47l373 -31l-17 -65l43 -25l361 51v-75l45 -17l274 131l90 -78l72 13l139 143l17 -4q37 -20 69 -34q26 -11 64 -11q42 0 53 29l18 159l144 -30q43 18 43 57v10l-6 19l-82 102h127l28 57zM2234 553l-184 -14q123 -123 123 -160l-2 -2
q-3 -3 -4 -12l-191 28l-14 -188l-184 55l-146 -162l-131 82l-291 -133l17 51l-45 52l-361 -60l43 90l-399 15l117 73l-351 74l162 68l-246 118l185 11l-101 118l-8 58l183 -17l28 189q86 -56 141 -56q19 0 37 9l154 153l115 -80l260 119l30 -10l11 -80l377 51l-29 -92h387
l-115 -80l332 -67l18 -27h-18l-143 -39l231 -110zM1954 649l-62 10l-8 -180l43 -4zM1931 401l-39 17l-30 -25l30 -28zM1823 416v233l-45 10l-9 -165l-143 155v-235l45 4v114q88 -116 152 -116zM1583 418v172q-27 76 -72 76q-32 0 -34 -9q-86 -118 -107 -233h55q33 55 62 55
q35 0 63 -55zM1346 659l-50 -10l-26 -235l61 14zM1221 406v233l-39 10l-11 -160l-149 150v-238l45 9v110q96 -114 154 -114zM993 571q-18 78 -102 78h-31q-94 -57 -94 -211q21 -37 88 -37q13 0 19 1q2 0 6.5 1l9 2t8.5 1q74 0 96 165zM748 655q-187 -24 -187 -135v-16
q0 -11 4 -15q24 -106 99 -106q13 0 20 4q4 3 31 8l-2 39q-12 -6 -49 -6q-54 0 -54 47q0 53 37 96q41 35 68 35q14 0 14 -2l3 -1l4 -1q4 -2 7 -4zM535 649l-43 -6l-27 -242l53 19zM1536 532h-80l47 78zM942 537q0 -23 -3 -36q-3 -14 -13 -34q-39 -21 -68 -21q-39 0 -39 58v16
q27 74 72 74q26 0 49 -29q0 -12 1 -17t1 -11z" />
    <glyph glyph-name="FL02C6h" unicode="&#x2c6;" horiz-adv-x="905" 
d="M575 854l-124 152l-121 -152h-228l172 217h357l172 -217h-228z" />
    <glyph glyph-name="FL02DCh" unicode="&#x2dc;" horiz-adv-x="1081" 
d="M528 854l-122 152l-121 -152h-228l172 217h324l123 -151l121 151h227l-172 -217h-324z" />
    <glyph glyph-name="FL2013h" unicode="&#x2013;" horiz-adv-x="1263" 
d="M102 389v217h1059v-217h-1059z" />
    <glyph glyph-name="FL2014h" unicode="&#x2014;" horiz-adv-x="1650" 
d="M102 606h1446v-217h-1446v217z" />
    <glyph glyph-name="FL2018h" unicode="&#x2018;" horiz-adv-x="423" 
d="M322 993v-385h-220v385h220z" />
    <glyph glyph-name="FL2019h" unicode="&#x2019;" horiz-adv-x="423" 
d="M322 993v-385h-220v385h220z" />
    <glyph glyph-name="FL201Ah" unicode="&#x201a;" horiz-adv-x="423" 
d="M322 217v-385h-220v385h220z" />
    <glyph glyph-name="FL201Ch" unicode="&#x201c;" horiz-adv-x="745" 
d="M643 993v-385h-219v385h219zM322 993v-385h-220v385h220z" />
    <glyph glyph-name="FL201Dh" unicode="&#x201d;" horiz-adv-x="745" 
d="M643 993v-385h-219v385h219zM322 993v-385h-220v385h220z" />
    <glyph glyph-name="FL201Eh" unicode="&#x201e;" horiz-adv-x="747" 
d="M645 217v-385h-219v385h219zM322 217v-385h-220v385h220z" />
    <glyph glyph-name="FL2021h" unicode="&#x2020;" horiz-adv-x="1650" 
d="M717 0v598h-615v217h615v178h217v-178h614v-217h-614v-598h-217z" />
    <glyph glyph-name="FL2020h" unicode="&#x2021;" horiz-adv-x="1650" 
d="M102 178v217h615v203h-615v217h615v178h217v-178h614v-217h-614v-203h614v-217h-614v-178h-217v178h-615z" />
    <glyph glyph-name="FL2022h" unicode="&#x2022;" 
d="M1718 993h-1409q-43 0 -78 -14q-36 -14 -65 -42q-26 -25 -46 -69q-18 -40 -18 -92v-559q0 -53 18 -93q19 -42 46 -68q29 -28 65 -42q35 -14 78 -14h1409q42 0 77 14q39 16 67 42q27 26 46 68q17 38 17 93v559q0 52 -17 90q-20 44 -46 69q-30 28 -67 43t-77 15z" />
    <glyph glyph-name="FL2026h" unicode="&#x2026;" horiz-adv-x="1230" 
d="M1128 217v-217h-219v217h219zM725 217v-217h-219v217h219zM322 217v-217h-220v217h220z" />
    <glyph glyph-name="FL2030h" unicode="&#x2030;" horiz-adv-x="3385" 
d="M1737 993h-262l-818 -993h267zM2204 496h-705q-40 0 -73 -28q-31 -27 -31 -81v-278q0 -54 31 -81q33 -28 73 -28h705q40 0 71 28t31 81v278q0 51 -31 80t-71 29zM2107 160h-518q-35 0 -35 45v86q0 45 37 45h516q39 0 39 -45v-86q0 -45 -39 -45zM911 993h-704
q-42 0 -73 -27q-32 -27 -32 -81v-279q0 -54 32 -81t73 -27h704q42 0 72 27q31 28 31 81v279q0 51 -31 80q-29 28 -72 28zM815 657h-516q-35 0 -35 45v86q0 46 37 46h514q39 0 39 -46v-86q0 -45 -39 -45zM3181 496h-705q-40 0 -73 -28q-31 -27 -31 -81v-278q0 -54 31 -81
q33 -28 73 -28h705q40 0 71 28t31 81v278q0 51 -31 80t-71 29zM3084 160h-518q-35 0 -35 45v86q0 45 37 45h516q39 0 39 -45v-86q0 -45 -39 -45z" />
    <glyph glyph-name="FL2039h" unicode="&#x2039;" horiz-adv-x="421" 
d="M319 621l-151 -125l151 -121v-228l-217 172v357l217 172v-227z" />
    <glyph glyph-name="FL203Ah" unicode="&#x203a;" horiz-adv-x="421" 
d="M102 621l152 -125l-152 -121v-228l217 172v357l-217 172v-227z" />
    <glyph glyph-name="FL20ACh" unicode="&#x20ac;" horiz-adv-x="2256" 
d="M102 702h316v74q0 54 17 92q20 44 46 69q29 27 66 42q35 14 78 14h1529v-217h-1441q-37 0 -55 -19q-16 -17 -21 -55h983v-163h-983v-84h983v-164h-983q11 -74 72 -74h1445v-217h-1529q-43 0 -78 14q-37 15 -66 42q-27 26 -46 68q-17 38 -17 93v74h-316v164h316v84h-316
v163z" />
    <glyph glyph-name="FL2122h" unicode="&#x2122;" horiz-adv-x="739" 
d="M197 1061v-232h43v232h94v43h-232v-43h95zM379 1096v-267h29v179l14 14l65 -176q5 -14 9 -15q6 -2 8 -2h8q3 0 9 6q7 7 16 24q6 11 24 60q12 33 37 109l10 -20v-179h29v275h-10q-15 0 -23 -3t-16 -14q-14 -20 -20 -30q-24 -42 -31 -53q-2 -2 -2 -11q-3 -15 -13 -44
q-7 -20 -16 -40l-51 135q-12 35 -38 50q-4 3 -11 7l-11 7q-16 0 -16 -12z" />
    </font>
</defs>
</svg>
